<svg version="1" xmlns="http://www.w3.org/2000/svg" width="346.667" height="346.667" viewBox="0 0 260.000000 260.000000"><path d="M112.8 1.1c-18.5 2.2-38.6 9.7-55.3 20.7-14.2 9.4-31.9 28.6-41.2 44.7-19.7 34.2-21.5 82.2-4.5 117.9 15.3 32 42.8 57 75.2 68.4 15.3 5.4 23.7 6.7 43 6.7 19.7 0 28-1.4 44-7.2 19-6.8 32.4-15.5 48-31.3 19-19 30.7-40.5 35.7-65.7 2.4-12.1 2.4-38.5 0-50.6-4.8-24.1-16.1-45.5-33.5-63.8-22.1-23.2-49-36.8-79.3-39.9-11.6-1.1-21.1-1.1-32.1.1zm24 68.6l.2 16.2 4.4-3.3c13-9.9 32.1-5.7 39.9 8.9 2 3.7 2.2 5.4 2.2 24v20h-5l-.5-19c-.6-20.4-1-22.3-6.4-27.6-5.9-5.9-20.7-6.5-27.5-1.2-6.6 5.4-7.1 7.3-7.1 29.9 0 24.8-.8 28.4-8.3 35.9-6.3 6.3-12.2 8.5-22.1 8.5-8.4 0-13.6-2.1-19-7.4l-3.6-3.7v17.5c0 14.5-.2 17.5-1.5 18-.8.3-2.2.3-3 0-1.3-.5-1.5-4.9-1.5-30.8v-30.3l3.1-6.1c4.7-9.5 13-15.1 23.4-16 8.1-.6 15.8 1.7 21.2 6.3 2.3 1.9 4.4 3.5 4.7 3.5.3 0 .6-13.2.6-29.3 0-16.2.3-29.7.7-30.1.4-.4 1.6-.6 2.8-.4 1.9.3 2 1.1 2.3 16.5zm60.5 78.7c.3.7.2 1.7-.1 2.3-.4.5-28.2 14.9-61.9 31.9-55.8 28.2-61.3 30.8-62.8 29.3-.9-.8-1.3-2.2-1-3 .7-1.9 122.3-62.9 124-62.3.7.3 1.6 1.1 1.8 1.8z"/><path d="M99.9 110.4c-12.4 4.4-19 18.3-14.4 30.2 3.8 10 11.4 15.4 21.7 15.4 8 0 14-2.9 18.4-8.7 14-18.5-4.2-44.6-25.7-36.9z"/></svg>